<?xml version="1.0"?>
<svg xmlns:rdf="http://www.w3.org/1999/02/22-rdf-syntax-ns#" xmlns="http://www.w3.org/2000/svg" xmlns:cc="http://web.resource.org/cc/" xmlns:xlink="http://www.w3.org/1999/xlink" xmlns:dc="http://purl.org/dc/elements/1.1/" xmlns:svg="http://www.w3.org/2000/svg" id="Layer_1_xA0_Image_1_" style="enable-background:new 0 0 302.4 517.68" xml:space="preserve" viewBox="0 0 302.4 517.68" version="1.1" y="0px" x="0px">
<g clip-rule="evenodd" fill-rule="evenodd">
	<path d="m163.44 25.68c0.242 3.604-0.034 8.765-2.4 10.56 0.547-2.127 1.731-5.032 2.16-8.16 0.11-0.815-0.14-1.677 0.24-2.4z"/>
	<path d="m99.6 61.2c-0.257 1.644-1.277 5.407-0.48 8.16-1.045-0.745-0.976-3.577-0.72-5.28 0.196-1.304 0.818-2.356 1.2-2.88z"/>
	<path d="m131.76 152.16c0.516 1.725 0.933 3.547 0.96 5.76-0.59-1.65-0.96-3.52-0.96-5.76z"/>
	<path d="m133.44 162.48c1.025 1.935 1.028 4.892 1.44 7.44-0.79-2.17-1.03-4.89-1.44-7.44z"/>
	<path d="m244.32 207.6c-0.65 0.729-1.087 0.177-1.92 0-6.408-0.248-10.798 1.522-16.08 2.4 1.316-0.77 3.089-1.067 4.8-1.44 3.76-0.82 8.97-2.24 13.2-0.96z"/>
	<path d="m163.92 323.04c0.603 1.249-0.337 3.018 0 4.8-0.75-0.61 0.01-3.38 0-4.8z"/>
	<path d="m163.44 331.44c0.26 0.059 0.162 0.477 0.479 0.479-0.264 1.373-0.229 3.122-0.24 5.28-0.56-1.44-0.08-3.92-0.24-5.76z"/>
	<path d="m163.44 340.32c0.558 2.001 0.081 5.038 0.239 7.439-0.9-1.75-0.42-5.29-0.24-7.44z"/>
	<path d="m163.2 348c0.214 0.106 0.429 0.211 0.479 0.48-0.081 1.696-0.18 2.206 0 3.84 0.118 1.13-0.433 0.58-0.239-0.24-0.32-1.12-0.25-2.63-0.24-4.08z"/>
	<path d="m36.72 465.6c0.03-0.529 1.018-0.102 1.44-0.239 0.984-0.024 1.967-0.048 2.64 0.239h3.12c1.896 0.083-2.191 0.489-2.64 0.48-1.62-0.03-3.37-0.76-4.56-0.48z"/>
	<path d="m219.6 228.72c-1.613 2.546-1.424 5.612-1.92 8.4-1.504 8.451-3.439 17.228-5.279 25.68-4.808 22.079-12.026 42.985-18.721 63.84-0.416 1.297-1.027 2.501-1.439 3.841-1.145 3.712-2.499 7.663-3.84 11.52-0.908 2.609-1.648 5.23-2.4 7.92-0.726 2.592-1.878 4.912-2.64 7.44-0.769 2.548-1.227 5.148-1.92 7.68-0.684 2.491-1.6 5.025-1.921 7.68 1.046 0.13 1.498-1.259 1.921-1.92 1.593-2.494 2.855-5.287 4.56-8.16 1.528-2.575 2.937-5.697 4.32-8.64 2.091-4.446 4.475-10.585 5.76-16.08 0.636-2.719 0.824-5.329 2.399-7.2-0.107-4.988 1.546-8.214 2.4-12.239-0.365-1.246 1.097-0.664 1.2-1.44 0.772-3.867 2.159-7.12 3.36-10.56 3.196-3.363 5.364-7.756 7.68-12 3.253-0.801 5.623-3.761 8.88-4.561 0.886-0.218 2.648-0.534 3.84-0.24 0.966 0.238 1.987 1.609 3.12 2.641 0.929 0.845 2.295 1.778 2.88 2.64 1.153 1.698 1.313 4.132 2.4 5.28-1.045 3.516-0.987 8.133-2.16 11.52-0.312 1.352 1.031 1.049 0.72 2.4-1.224 2.533-1.22 5.063-2.16 7.439-0.955 2.417-3.408 4.427-3.12 7.681-2.816 3.071-4.944 6.676-7.68 10.08-0.408 0.508-1.067 0.896-1.439 1.439-0.429 0.624-0.488 1.427-0.96 1.92-0.849 0.887-2.69 1.916-3.841 2.88-2.286 1.919-4.483 4.028-6.72 6.24-1.161 1.149-2.455 1.862-3.6 2.88-2.228 1.98-4.538 4.245-6.721 6.48-1 1.024-1.849 2.474-2.88 3.6-1.071 1.171-2.452 1.974-3.359 3.12-1.962 2.479-3.656 5.713-5.521 8.64-3.766 5.915-6.155 12.201-8.64 19.681-1.181 3.555-2.469 7.403-2.88 11.04-0.743 6.571-1.023 13.769-0.48 21.12 0.16 2.165 0.693 4.292 0.96 6.72 0.097 0.876-0.145 1.998 0 2.88 0.971 5.928 4.329 10.098 8.16 13.68 0.047-6.973 0.162-14.171 2.64-19.439 0.837-1.779 1.947-3.421 2.881-5.04 0.375-0.651 0.357-1.387 0.72-1.92 0.866-1.277 2.283-2.522 3.359-3.84 1.089-1.333 2.078-2.809 3.12-3.841 0.981-0.97 2.292-1.664 3.36-2.64 2.023-1.848 3.73-4.153 5.76-6.24 0.994-1.022 2.187-1.873 3.12-2.88 0.941-1.015 1.643-2.321 2.64-3.359 0.983-1.023 2.063-1.905 3.12-2.881 2.213-2.041 4.169-4.59 6.24-5.76 0.632-0.356 1.517-0.415 2.16-0.72 2.458-1.164 4.445-3.052 6.72-4.32 2.391-1.333 4.774-2.254 6.96-3.84 4.66-0.219 9.567-3.032 15.36-3.84 1.038-0.145 2.456-0.322 3.6-0.24 0.767 0.055 1.366 0.468 2.16 0.48 2.274 0.035 4.55-0.667 6.96-0.721 2.715-0.06 6.968 0.243 9.36 1.2 0.87 0.348 2.506 0.429 4.08 0.72 0.855 0.159 1.64 0.583 2.399 0.721 2.167 0.392 4.927 0.426 6.48 1.92 0.429 0.412 0.429 1.436 1.2 2.399 1.007 1.259 3.159 2.117 4.08 3.36 1.322 1.786 2.434 4.256 2.159 6.96-0.348 3.431-2.75 4.775-4.56 7.68-0.524 1.659-0.698 2.839-1.68 3.841-1.324 1.351-4.614 2.455-6.96 2.88-2.053 0.371-4.484-0.236-5.521 1.439-2.715 0.222-5.412 1.513-8.399 1.92-3.01 0.411-6.271 0.196-8.4 1.92-1.806 0.042-3.256 0.793-5.04 0.96-3.321 0.312-6.822-0.488-10.32 0-1.302 0.183-2.565 0.997-3.84 1.2-6.814 1.086-13.819 0.377-20.16 1.2-3.94 0.512-8.476 2.017-12.239 3.36-2.145 0.765-4.579 1.985-6.48 3.12-1.42 0.847-2.7 1.987-4.08 3.119-2.444 2.006-4.975 6.484-5.04 11.28-0.046 3.354 1.282 7.116 2.64 10.08 3.75 8.185 12.782 13.419 21.36 16.561 3.083 1.129 6.198 2.14 9.36 3.359 4.342 1.676 8.639 3.701 13.439 5.521 2.912 1.103 6.21 1.931 9.36 3.12 1.436 0.542 2.659 1.577 4.08 2.159 3.762 1.543 7.767 2.332 11.28 4.08 1.569 0.781 3.25 1.949 4.8 2.88 3.021 1.815 6.085 3.697 7.439 6.96-2.115-1.193-3.646-3.601-5.76-5.04-0.799-0.544-2.242-1.097-3.36-1.68-1.509-0.787-3.625-1.987-5.52-2.88-1.599-0.753-3.179-1.297-4.8-1.92-4.708-1.811-8.896-3.818-13.92-5.521-1.569-0.531-2.979-1.272-4.561-1.92-1.634-0.668-3.431-0.819-5.04-1.439-1.706-0.658-3.169-1.757-4.8-2.4-1.703-0.671-3.393-1.312-5.04-1.92-3.809-1.406-7.519-1.739-11.76-2.399-3.695-0.576-7.479-1.509-10.8-1.921-7.604-0.941-17.826-0.823-27.12-0.479 1.696 1.283 3.996 0.736 6 0.96 3.453 0.385 6.966 1.14 10.32 1.68 14.801 2.384 28.305 8.588 41.76 13.44 3.335 1.203 6.439 2.935 9.84 4.08 6.703 2.258 13.299 4.646 19.92 7.68 1.567 0.718 3.108 1.378 4.56 2.4 1.189 0.837 2.832 1.773 3.36 3.359-1.475 0.635-2.317-1.061-3.12-1.68-2.822-2.177-6.626-3.836-10.319-5.28-4.893-1.912-9.84-3.812-14.881-5.76-4.829-1.866-9.642-4.325-14.64-6-1.351-0.452-2.776-0.691-4.08-1.2-3.028-1.182-6.133-1.955-9.6-3.359-0.474-0.192-0.927-0.784-1.44-0.96-2.537-0.872-5.387-1.409-8.16-2.16-1.39-0.377-2.673-0.819-4.08-1.2-1.436-0.39-2.8-0.433-4.319-0.72-3.879-0.734-7.756-2.026-11.761-2.641-2.039-0.312-4.151-0.662-6.239-0.96-2.013-0.286-4.087-0.81-6-0.96-2.256-0.177-4.628 0.271-6.96 0.48-6.297 0.563-13.851 0.107-20.88-0.48-2.233-0.187-4.511-0.866-6.72-0.96-3.95-0.167-7.445 0.788-10.8 1.44-1.209 0.235-2.473 0.208-3.6 0.479-1.194 0.288-2.35 1.049-3.6 1.44-2.371 0.743-5.154 1.104-7.68 1.92-1.182 0.382-2.258 1.052-3.36 1.439-1.296 0.457-2.658 0.534-3.84 0.961-2.229 0.804-4.432 1.795-6.72 2.88-3.602 1.707-7.406 3.173-10.8 5.76-1.53 1.166-3.251 2.231-4.56 3.36-1.199 1.033-2.407 2.727-3.84 4.079-1.414 1.335-3.535 3.069-4.56 3.36-0.731 0.207-1.332 0.098-2.4 0-4.859 3.541-13.192 3.607-19.44 5.76-1.202 0.322-0.37-1.391-1.68-0.96-5.004 0.098-10.897 1.216-16.08 0.721-0.998-0.096-2.116-0.565-3.12-0.721-1.536-0.237-2.93-0.053-4.08-0.479-0.916-0.34-1.42-0.879-2.16-1.44-3.974-1.306-7.787-2.772-10.8-5.04-1.8-3.097-2.293-8.662-1.92-12.72 0.367-3.995 2.9-6.783 4.8-9.6 1.652-2.45 3.772-3.676 3.84-6.721 2.397-1.232 4.732-2.765 7.2-4.08 1.924-1.024 3.993-1.346 5.04-3.359 6.475-1.765 12.466-4.015 20.4-4.32 0.974-0.443 1.082-1.309 1.92-1.68 1.273-0.564 3.878-0.423 6.24-0.721 2.039-0.257 4.043-0.846 5.76-0.96 2.763-0.183 5.221-0.008 7.92 0 6.656 0.02 13.257 0.702 19.44 1.44 6.135 0.732 11.562 2.797 17.52 4.32 3.56 0.909 6.88 1.333 11.04 1.68 2.776 0.231 4.948 0.537 7.92 0.479 5.428-0.104 10.947 0.321 16.08 0.721 13.636 1.061 26.41 4.116 39.12 6-3.926-4.091-10.052-6.193-13.439-10.8-3.533-4.805-6.061-13.573-7.921-19.921-4.407-15.044-7.27-29.48-10.799-44.88-2.631-11.477-5.018-22.367-8.4-33.12-1.122-3.567-2.169-7.188-3.6-10.319-2.89-6.329-5.729-12.323-9.6-18-3.712-5.444-7.71-10.462-12.24-15.601-1.084-1.229-1.917-2.628-3.12-3.84-1.132-1.141-2.434-2.194-3.6-3.359-2.275-2.275-4.467-4.912-7.2-6.48-1.955-1.122-4.054-1.461-6.24-2.16-1.868-0.597-3.782-1.832-5.52-2.64-3.794-1.763-7.019-3.56-10.56-5.76-0.559-0.322-0.371-1.39-0.72-1.92-6.478-3.089-12.133-7.03-18.48-10.801-3.337-1.982-6.443-3.889-10.56-5.52-0.765-0.303-1.61-0.378-2.4-0.72-5.373-2.327-12.083-5.379-18.48-6.96-4.753-1.175-9.089-1.988-7.68-7.92 0.469-1.974 0.851-3.388 2.16-4.56 1.816-1.627 5.056-2.422 7.44-2.88 0.899-0.141 0.689-1.391 1.68-1.44 4.545 0.095 8.392 0.888 12.24 1.68 1.154 0.194 0.867-1.053 2.16-0.72 4.033 0.884 7.658 3.332 11.04 4.08 3.521 2.108 7.978 4.056 12 6.24 1.716 0.932 2.965 1.561 5.04 2.4 2.588 1.047 5.084 3.026 7.44 4.8 1.119 0.843 2.467 1.54 3.6 2.399 1.155 0.877 1.999 2.185 3.12 2.881 0.75 0.466 1.733 0.482 2.4 0.96 1.617 1.156 3.325 3.562 5.04 5.52 4.666 5.327 9.236 11.924 13.92 17.04 1.763 1.927 3.557 3.424 5.04 5.28 2.987 3.737 5.701 7.951 8.16 12.479 1.162 2.14 2.225 4.623 3.6 6.721 0.638 0.973 1.681 1.705 2.4 2.64 1.349 1.753 2.614 3.673 3.84 5.76 2.826 4.813 5.471 10.928 8.64 15.84-0.057-5.458-0.663-11.343-1.2-17.279-0.545-6.025-0.339-12.186-1.2-18-0.193-1.302-0.814-2.712-0.96-4.08-0.426-4.001-0.348-7.59-0.96-11.04-1.135-6.395-4.513-10.987-7.44-16.08-4.186-7.283-8.087-15.428-11.76-23.52-1.827-4.026-3.594-7.924-5.52-12.24-1.39-3.114-2.719-6.566-3.84-10.56-1.729-6.156-4.121-13.089-5.52-19.68-2.023-9.529-3.102-19.311-4.08-29.76-0.365-3.903-1.329-7.847-1.68-12-0.472-5.587 0.006-11.429-0.24-17.28-0.101-2.384-0.316-4.819-0.48-7.2-0.255-3.708-0.419-7.25-0.72-11.04-0.563-7.107-1.145-14.32-3.36-20.4-0.63-1.73-1.913-3.146-2.16-5.04 2.959 0.641 4.992 2.208 6.72 4.08 2.032-0.032 2.514 1.486 3.84 2.16 0.063-9.673-0.318-18.526-0.48-27.84-0.038-2.164 0.517-5.391-0.48-7.2-0.693-1.259-3.065-1.656-4.08-2.88-2.103-2.537-2.229-7.711-0.96-10.56 1.201-2.696 3.975-3.792 6-5.52 5.504-0.641 8.885 3.369 9.36 8.16 0.271 2.732-0.504 6.107-1.92 7.92-1.08 1.383-2.948 1.771-3.6 3.12-1.375 2.845-0.631 16.315-0.48 22.08 0.132 5.042 0.705 8.768 0.72 12.24 0.011 2.582 0.184 3.643 0.48 6.24 0.172 1.508 0.07 3.478 0.48 4.56 0.557 1.469 2.04 2.063 2.64 2.88 1.393 1.896 2.523 5.28 3.6 8.16 0.332 0.888 0.971 1.873 1.2 2.64 1.197 4.015 0.502 6.994 0.48 11.04-0.007 1.288 0.517 2.678 0.48 4.08-0.114 4.319-1.839 8.747-2.88 12.72-0.333 1.274-0.886 2.826-0.96 4.08-0.065 1.113 0.375 2.235 0.48 3.36 0.261 2.804 0.261 5.709 0.72 8.64 0.216 1.378 0.483 2.682 0.72 4.08 0.866 5.119 1.511 12.024 2.64 17.28 0.486 2.265 1.211 4.464 1.68 6.72 0.493 2.369 0.934 4.729 1.44 6.96 0.475 2.094 1.578 3.34 1.44 6.24 1.826 3.86 1.922 8.15 3.36 12.48 0.412 1.24 1.237 2.321 1.68 3.6 0.42 1.212 0.52 2.576 0.96 3.84 0.93 2.669 2.176 6.228 3.12 9.36 1.234 4.095 2.57 8.288 4.08 12.24 2.054 5.378 2.962 11.05 5.52 16.08 0.722-4.797 0.706-9.625 0.72-14.4 0.008-2.912-0.211-5.872-0.24-8.88-0.078-8.095-0.606-16.42-0.96-24.48-0.084-1.907 0.208-3.911 0-5.76-0.21-1.865-1.305-3.709-1.68-5.52-0.534-2.579-0.264-5.29-0.48-7.92-0.292-3.562-0.915-7.167-1.44-10.8-0.645-4.46-1.71-9.02-2.4-13.44-0.532-3.409-1.653-6.698-2.16-9.84-0.187-1.156-0.03-2.41-0.24-3.6-0.302-1.714-0.986-3.388-1.44-5.28-0.414-1.724-0.987-3.595-1.44-5.28-0.997-3.707-1.653-7.018-3.12-10.08-3.021-6.308-6.111-12.268-8.4-18.24 0.569-3.996-2.031-8.049-2.16-12.72-0.023-0.821 0.421-1.508 0.48-2.4 0.226-3.416-0.629-7.252-0.24-10.56 0.33-2.806 1.313-6.071 2.16-8.64 2.535-0.641 5.064 1.401 7.2 1.2 1.43 2.321 3.711 3.769 5.04 6 0.529 0.888 0.618 1.995 1.2 2.88 0.63 0.959 1.749 1.612 2.4 2.64 1.868 2.951 2.506 8.077 3.36 12.24 0.153 0.747 0.098 1.471 0.24 2.16 0.158 0.766 0.626 1.427 0.72 2.16 0.979 7.657-0.48 16.017-0.48 24.72 0 4.028 0.337 8.212 0.72 12.24 0.639 6.714 0.798 13.239 1.44 19.68 0.236 2.375 0.406 4.778 1.44 6.72 0.987-5.438 0.24-10.864 0.48-16.32 0.334-7.606 0.987-15.233 1.68-22.8 0.691-7.543 1.159-15.164 1.92-22.56 1.127-10.963 2.684-21.891 4.08-32.64 0.554-4.262 0.638-8.516 1.2-12.72 2.08-15.549 5.876-30.316 7.2-45.84-0.375-1.313-1.791-1.435-1.44-2.88-0.048-0.391-0.635-0.112-0.96-0.24-0.933-0.366-0.333-1.5-1.92-1.44 0.061-1.249-0.792-2.174-1.2-3.12-0.479-1.113-0.66-2.26-1.2-3.12-0.41-0.652-1.085-1.605-1.68-2.16-2.479-2.312-6.385-3.064-6.96-7.44-1.151-1.569-2.883-2.557-4.08-4.08-2.677 0.117-4.656-0.463-6.24-1.44-0.118-2.118 2.243-1.757 3.36-2.64-0.355-1.564-1.734-2.106-1.92-3.84 1.146-0.715 2.313 0.327 3.12 0.72 0.63-0.7-0.213-1.382 0-2.4 1.47 0.051 2.215 0.825 3.36 1.2 0.899 0.019 0.061-1.699 0.96-1.68 1.835 0.084 2.672 1.168 3.84 1.92 0.759-0.281 0.349-1.731 1.44-1.68 1.16 0.944 3.74-0.826 4.8 0.96 3.264-2.066 5.966 1.375 7.68 3.12 1.232-0.848 2.073-2.087 3.6-2.64 1.651 0.669 2.213 2.428 3.12 3.84 1.816-0.504 2.466-2.174 4.32-2.64 1.235 0.125 0.833 1.888 1.92 2.16 1.028-0.251 1.744-0.816 3.12-0.72 0.634 1.126 0.468 3.052 0.479 4.8 1.541 0.295 3.617-0.83 5.04-1.44 2.903 0.478 4.253-1.794 6.96-0.72 0.98 1.073-0.365 2.232-0.239 3.84 2.073-0.478 3.283-0.778 5.76-0.48 0.708 0.623-0.418 1.587 0.24 2.16 0.76 0.36 1.902 0.338 2.64 0.72 1.124-0.067-0.308 1.051 0.48 1.44 0.472 0.328 1.37 0.229 1.92 0.48-0.771 1.942 1.404 1.598 1.92 2.88-0.053 1.068-1.169 1.071-1.681 1.68-0.427 0.928 1.421 1.387 1.2 2.88-4.808 1.112-11.885-0.045-15.6 2.16h-2.16c-1.372 0.984-3.205 1.057-4.56 1.92-0.819 0.522-1.066 1.331-1.681 1.92-0.286 0.275-0.897 0.198-1.2 0.48-0.311 0.29-0.271 1.029-0.479 1.2-0.319 0.261-1.028 0.422-1.44 0.72-0.436 0.315-0.848 0.758-1.199 0.96-1.211 0.694-2.721 0.727-4.08 1.44-0.884 0.463-1.58 1.6-2.641 1.92-3.512 6.436-4.031 13.844-5.52 22.08-1.285 7.108-2.921 15.266-4.08 23.28-0.787 5.44-0.965 11.073-1.68 16.56-0.415 3.177-1.431 6.361-1.68 9.6-0.356 4.618-0.165 8.625-0.72 13.2-0.275 2.263-0.925 4.457-1.2 6.72-0.911 7.504-0.946 15.615-1.68 23.52-0.354 3.811-0.386 7.655-0.72 11.52-0.688 7.954-1.095 15.622-0.96 23.76 1.012-0.978 1.262-2.562 1.68-3.84 2.539-7.77 4.135-17.42 6.96-25.2 1.42-3.912 2.784-7.751 4.08-12 0.779-2.554 1.913-4.315 2.88-6.72 1.581-3.932 3.256-9.508 5.52-12.72 0.525-0.745 1.539-1.302 2.16-2.16 0.563-0.778 0.866-1.775 1.44-2.64 1.311-1.974 3.147-4.891 4.8-6.72 1.14-1.262 3.713-2.439 5.52-3.36 1.469-0.748 3.054-1.331 4.561-1.92-2.912 2.545-6.854 3.275-9.6 6-0.786 0.779-1.378 2.013-2.16 3.12-1.458 2.062-2.724 3.949-4.32 6.24-0.721 1.034-1.816 1.914-2.4 2.88-1.979 3.276-3.368 7.476-4.8 11.52-1.021 2.885-2.592 5.604-3.6 8.64-0.384 1.154-0.354 2.245-0.72 3.36-0.304 0.926-1.112 1.707-1.44 2.64-0.526 1.496-0.875 3.027-1.44 4.56-1.516 4.111-2.694 9.395-3.6 14.16 2.224-3.376 2.682-8.519 5.28-11.52 0.956-5.61 3.636-9.654 6.239-13.92 4.623-7.574 9.281-14.98 14.881-21.6-1.549 3.853-5.017 6.619-7.44 10.32-0.614 0.939-0.983 2.011-1.68 2.88-0.29 0.361-0.233 0.586-0.48 0.96-3.218 4.873-6.774 9.691-8.88 15.36 1.129 0.544 1.521-1.096 1.92-1.68 1.518-2.226 3.504-4.545 5.521-6.48 2.186-0.395 5.068-0.9 7.439-1.92 1.644-0.707 2.854-2.273 4.561-3.6 0.806-0.627 1.722-1.039 2.399-1.68 0.684-0.646 1.168-1.548 1.92-2.16 0.777-0.631 1.789-1.006 2.641-1.68 0.955-0.756 1.804-1.887 2.88-2.88 1.119-1.034 2.408-1.798 2.88-2.64 0.385-0.687 0.259-1.719 0.72-2.64 0.604-1.206 1.741-2.136 2.4-3.36 0.729-1.355 1.493-2.894 1.68-4.08 0.118-0.748-0.344-1.564-0.24-2.4 0.113-0.904 1.043-1.786 1.2-2.88 0.241-1.677-0.178-2.991 0-4.8-2.542-2.396-8.071-1.247-11.52-0.72 2.335-2.037 9.478-1.42 12.239-0.24-0.14 2.128 0.19 4.182 0 6-0.079 0.761-0.607 1.392-0.72 2.16-0.124 0.857 0.177 1.633 0 2.4-0.395 1.718-1.482 3.559-2.399 5.28-1.763 3.308-2.591 5.61-5.04 8.16-0.446 0.464-1.187 0.704-1.681 1.2-1.204 1.212-2.286 2.375-3.84 3.6-2.279 1.796-5.011 3.832-7.2 6 5.003 1.196 11.244-1.954 16.08 0.48-0.917 1.426-2.667 0.966-4.08 1.44-2.475 0.831-5.916 2.862-7.92 4.8-0.71 0.687-1.202 1.82-1.92 2.64-0.717 0.82-1.66 1.367-2.399 2.16-1.466 1.571-2.698 3.543-3.841 5.28-1.794 2.728-3.134 5.686-4.56 9.12-0.423 1.019-1.23 2.082-1.44 2.88-0.419 1.596-0.35 3.366-0.72 5.04-0.348 1.574-0.552 3.286-0.96 4.8-0.26 0.964-0.937 1.708-1.2 2.64-0.217 0.766-0.053 1.674-0.239 2.4-0.484 1.88-1.793 3.36-2.4 5.28-0.459 1.451-0.644 3.435-0.96 5.04-2.241 11.36-3.051 24.394-6.24 35.28-1.278 4.362-2.288 8.275-4.8 11.52-1.779 8.344-2.88 19.231-1.68 29.041 6.192-13.647 17.023-24.469 27.36-35.521 4.702-5.027 9.97-10.51 16.08-15.36 5.861-4.653 12.194-9.71 20.16-11.04 2.233-0.373 4.189-0.016 6-1.44 1.203-4.43 1.19-8.669 1.92-13.92 0.183-1.316 0.75-2.508 0.96-3.84 0.137-0.865-0.122-1.745 0-2.64 0.087-0.632 0.64-1.284 0.72-1.92 0.129-1.018-0.137-2.033 0-3.12 0.836-6.615 1.393-14.792 2.16-21.84 0.282-2.587 1.104-6.382 1.2-9.84 0.049-1.754 0.25-4.286-0.24-5.52-0.605-1.527-2.651-1.617-4.319-2.88-5.255-3.977-4.855-15.128-0.96-20.4 0.321-0.559 1.389-0.371 1.92-0.72 2.067-2.181 4.345-5.083 7.68-5.04 3.499 0.045 4.881 3.571 6.96 5.76 0.163 0.796 1.651 0.269 1.92 0.96 2.536 6.665 2.166 16.069-2.88 19.68-1.068 0.765-2.683 0.779-3.6 1.68-2.437 2.391-1.724 9.293-2.4 13.92-0.95 6.491-1.658 13.033-2.4 19.92-0.192 1.787 0.015 3.67-0.239 5.52-0.177 1.284-0.767 2.522-0.96 3.84-0.279 1.9-0.127 3.816-0.48 5.76-0.735 4.049-1.798 8.158-1.92 12.24 1.469 0.755 2.092-0.782 3.6-0.72-2.545 1.292-3.859 1.811-4.319 5.52-0.078 0.626-0.497 1.712-0.24 2.64 0.023 0.086 0.47 0.553 0.479 0.48-0.065 0.486-0.762 1.11-0.96 1.68-0.652 1.879-0.936 4.487-1.199 6.72 3.64 1.228 9.616 1.223 13.92 0.72 3.782-0.442 7.365 0.396 11.04-0.48 0.997-0.238 1.861-0.963 2.88-1.2 2.521-0.586 4.938-0.267 6.96-1.2 0.717-0.331 1.21-1.006 1.92-1.44 1.719-1.051 4.3-1.226 5.04-3.12 0.472-1.188-0.782-1.177-0.24-2.64-0.192-0.521-2.215-1.982-0.96-1.68 0.154 0.857 2.843 2.478 2.16 4.8-0.19 0.649-5.662 4.058-6.72 4.56-1.675 0.796-4.737 0.842-6.96 1.68-1.538 0.58-4.748 1.487-6.96 1.68-2.596 0.226-4.728-0.322-6.721 0-0.68 0.11-1.497 0.642-2.16 0.72-1.558 0.182-3.074-0.302-4.8-0.48-2.62-0.27-5.35 0.1-8.16-0.24zm-70.56-213.12c1.227 1.601 2.263 3.652 4.08 3.84 0.089-1.515-0.562-3.256-1.2-4.8-0.6-1.453-1.441-3.231-2.16-4.56-0.918-1.699-2.358-3.833-4.32-4.32-1.26 5.13 1.73 7.402 3.6 9.84zm-3.6-3.6c-0.157-1.604-0.809-2.711-0.96-4.32-1.344-0.816-1.823-2.498-3.84-2.64-0.009 3.063 1.461 6.688 3.84 8.16v0.96c0.805 0.555 1.263 1.688 1.92 2.64 0.606 0.878 1.26 2.243 2.16 2.16 1.55-3.088-1.99-4.978-3.12-6.96zm5.28-2.88c0.195-2.435-0.84-3.64-2.88-3.84 0.54 1.699 1.36 3.123 2.88 3.84zm7.44 8.88c-0.506-5.799-0.123-12.089-5.76-12.48h-0.48c-0.796 7.84 2.192 13.964 6.48 17.52 1.06-1.373-0.08-3.155-0.24-5.04zm-16.8-3.36c1.562 1.743 3.675 3.636 5.52 4.32-1.807-4.433-5.75-6.73-6.96-11.76-0.946-0.334-1.369-1.191-2.64-1.2-0.24 3.381 2.07 6.396 4.08 8.64zm23.04-3.12c-0.226-1.833-1.362-4.828-3.12-4.8-1.199 0.019-2.713 2.407-2.88 3.36-0.109 0.621 0.192 1.458 0.239 2.16 0.214 3.17-0.01 7.667 1.44 9.12 0.943-0.176 1.739-0.5 2.64-0.72 0.88-2.054 2.12-5.577 1.68-9.12zm-29.76-3.36c2.107 2.853 3.521 6.399 6.96 7.92-1.489-3.071-4.117-5.003-5.28-8.4-0.739 0.179-0.461-0.659-1.2-0.48h-0.48v0.96zm29.28 12.24c1.228 0.679 1.608-0.734 3.12-0.48 2.032-2.183 4.998-9.516 1.68-11.76-4.41 1.275-3.46 7.898-4.8 12.24zm7.44-10.56c-0.692 2.045-0.82 4.269-1.44 6.24-0.62 1.97-2.059 3.509-1.92 5.28 1.461-0.219 2.008-1.932 2.88-3.12 1.688-2.298 3.579-4.809 2.64-8.88-1.1-0.215-1.36 0.4-2.16 0.48zm-38.64 2.4c0.35 0.709 2.45 0.612 3.12 0.24 0.55-2.111-3.27-1.788-3.12-0.24zm47.28 0.24c-1.944-0.243-4.529 0.958-6.24 2.88-0.928 1.043-1.219 2.292-2.16 3.6-1.396 1.94-3.766 3.014-1.92 5.04 0.696 0.614 1.381-0.42 1.681 0-0.103 0.458-0.687 0.434-0.48 1.2 2.048 0.225 2.285-0.416 3.6-1.2 0.672-0.4 1.536-0.464 1.921-0.72 1.222-0.812 2.73-2.319 4.079-3.6 2.612-2.479 4.939-4.355 5.28-8.16-1.796-0.196-2.707 0.493-4.08 0.72-2.156 3.923-4.259 7.9-8.16 10.08 2.16-3.138 6.65-5.167 6.48-9.84zm11.04 2.88c-5.89-0.894-8.767 3.967-12 6.72-1.053 0.896-2.903 1.157-2.64 2.88 2.659-0.781 4.551-2.329 6.96-3.36-0.002 0.555-1.859 1.282-0.721 1.44 1.104-0.172 1.629-1.204 2.641-1.68 2.609-1.229 6.088-1.298 7.92-3.36-3.521-1.356-5.907 2.351-8.88 3.12 2.07-2.088 5.52-2.796 6.72-5.76zm-1.2 5.04c-3.419 1.21-6.727 2.931-8.399 5.04 3.355-0.834 6.257-3.203 9.6-3.84 1.905-0.363 3.336-0.446 4.32-1.68-1.92-1.567-3.62-0.191-5.52 0.48zm-39.36 4.08c1.04 2.522 1.646 4.915 2.88 6.72 0.638-2.507-0.502-5.237-1.2-7.2 2.34 2.14 1.129 5.677 2.16 8.4 0.664 1.753 2.869 2.931 3.359 4.8 0.973 3.705-0.56 8.847-1.439 13.68-0.753 4.135-1.276 8.488-1.92 12.72-0.522 3.435-1.608 7.159-1.92 9.6-0.605 4.729-1.378 8.462-1.92 12.48-0.108 0.797 0.087 1.574 0 2.4-0.178 1.684-0.842 3.396-0.96 5.04-0.097 1.352 0.105 2.636 0 3.84-0.132 1.52-0.728 2.995-0.96 4.56-1.203 8.121-1.669 16.853-2.88 25.68-0.556 4.049-0.486 8.318-0.72 12.48-0.238 4.235-1.129 8.488-1.44 12.48-0.341 4.383-0.146 8.624-0.72 12.72-0.114 0.815-0.657 1.584-0.72 2.4-0.164 2.124 0.401 4.848 0.24 7.44-0.531 8.542-0.81 17.863-1.2 27.12-0.18 4.26-0.304 9.212 0.96 11.28 0.623 0.417 0.441 1.639 1.68 1.44 0.18-11.074 0.342-21.955 0.72-32.4 0.51-14.092 1.708-27.247 2.88-40.8 0.441-5.107 0.876-10.247 1.44-15.36 0.554-5.022 1.034-10.127 1.44-15.12 0.412-5.064 1.37-9.945 1.92-14.88 0.781-7.011 1.555-13.6 2.399-19.68 1.062-7.639 2.203-14.719 3.601-21.6 0.282-1.393 1.017-2.758 1.2-4.08 0.872-6.293 1.943-11.352 5.76-14.4 4.771-0.526 5.043-6.311 8.88-7.92 1.663-0.697 4.054 0.152 4.56-2.4-1.856-0.401-3.423-0.056-5.76-0.24-2.76 1.719-3.689 5.27-5.76 7.68-0.585 0.622-1.268 2.404-2.16 1.92 1.229-3.245 5.053-4.743 4.8-8.88-0.11-1.818-2.575-4.995-3.84-5.28-0.801-0.181-2.554 0.36-3.6 0.72-3.38 1.161-3.633 3.755-3.84 7.92-0.107 2.145 0.584 4.199-0.48 5.04-0.453-3.623 1.166-7.736-0.24-10.8-1.363-2.973-5.214-2.634-7.68-4.56-0.76 2.291-0.18 3.435 0.48 5.04zm-1.68-0.24c-0.466-2.813-2.912-3.648-5.28-4.56 0.89 2.388 3.29 3.266 5.28 4.56zm45.6-2.64c-3.354 1.083-6.222 2.083-8.881 3.12-1.233 0.481-2.844 0.613-3.359 1.68 2.997-0.062 5.759-1.876 8.88-2.4 2.476-0.416 5.597 0.065 6.96-2.16-1.18-1.501-2.17-0.702-3.6-0.24zm1.68 2.4c-2.916 1.084-7.114 0.886-9.601 2.4 3.606-0.394 8.146 0.146 11.04-0.96-0.08-0.878-0.82-1.098-1.44-1.44zm-24.72 8.64c-0.4 0.587-1.574 1.201-0.96 1.92 1.456-2.384 4.453-3.227 6-5.52-3.11-0.291-3.9 1.922-5.04 3.6zm-70.08 26.16c-0.106-0.453 0.327-1.446-0.48-1.2-5.047 2.122-5.901 15.502 1.2 15.12-0.088-1.754-0.996-3.959-0.24-5.76-0.004 2.484 0.201 4.759 1.44 6 2.078 0.59 4.192-0.3 5.52-1.2 3.334-2.89 3.517-12.935-1.44-14.16-1.1 2.028 1.579 3.504 0.72 5.28-0.44-3.41-3.73-7.463-6.72-4.08zm1.68 15.12c0.335 10.386 0.72 21.636 0.72 33.36 0 3.238-0.766 7.827 2.4 7.68-0.22-13.805-1.879-27.685-0.24-41.04-1.24-0.245-1.48-0.003-2.88 0zm36 115.2c-0.499-3.222-0.877-6.681-1.2-10.08-0.64-6.733-1.129-13.824-1.44-20.88-0.474-10.774 0.697-18.775 0.24-28.32-0.144-3.011-0.718-4.825-1.2-7.2-1.092-5.381-2.085-11.014-5.52-12.96-0.976-3.904-3.76-6-5.76-8.88-2.33-0.15-3.27-1.69-6-1.44-0.302 0.099-0.491 0.31-0.48 0.72-0.952 1.576-0.886 4.749-1.2 6.24-0.287 1.36-0.723 2.296-0.72 3.84 0.005 2.565 0.538 5.467 0.48 8.64-0.028 1.517-0.485 2.819-0.24 4.32 0.276 1.686 1.248 3.29 1.68 5.04 0.168 0.681 0.04 1.41 0.24 2.16 0.15 0.563 0.635 1.129 0.72 1.68 0.125 0.812-0.168 1.45 0 2.16 0.651 2.755 2.062 5.463 3.12 8.16 1.065 2.717 2.677 4.873 4.08 7.44 2.649 4.849 3.726 10.523 5.28 15.84 0.784 2.682 1.848 5.228 2.64 7.92 0.405 1.376 0.642 2.9 0.96 4.32 0.29 1.295 0.401 2.857 1.44 3.84 0.041-0.359-0.086-0.886 0.24-0.96 0.077 0.957 0.013 1.773-0.48 2.16 1.696 1.173 0.75 4.638 1.2 6.96 0.399 2.061 1.273 4.05 1.68 6 0.481 2.311 0.351 4.511 1.44 6.48 1.03-4.66-0.48-8.57-1.2-13.2zm15.6 76.32c-3.373 4.746-5.535 9.604-7.439 15.119-1.007 2.916-1.622 5.724-2.4 8.881-0.718 2.91-1.216 6.11-2.16 9.359-1.287 4.431-0.02 8.687 0.24 13.681 0.194 3.721 0.098 7.678 0.48 11.52 0.4 4.017 0.812 7.964 1.2 11.76 0.286 2.788 0.456 5.696 0.96 8.16 0.403 1.973 1.445 3.994 2.16 5.76 0.785 1.94 1.262 4.325 2.64 5.521-1.506-14.558-3.6-29.66-3.6-45.601 0-18.918 3.432-33.549 11.52-43.92 2.174-2.787 4.524-5.693 7.2-8.64 3.769-4.15 8.162-7.804 12-11.52 4.072-3.944 8.409-7.119 12.96-10.8 6.519-5.274 13.29-9.098 24.239-7.68 0.89-1.511 0.67-4.131 1.44-5.76 0.181-0.98-0.512-1.088-0.96-1.44 1.771-0.629 1.637-3.163 1.68-5.52-1.501-0.12-2.884 0.72-4.319 0.96-1.837 0.307-3.333 0.399-5.04 0.96-1.484 0.487-3.169 0.823-4.561 1.44-3.035 1.345-6.003 4.251-8.88 6.48-4.655 3.606-8.253 7.201-12 11.04-2.628 2.691-5.543 4.878-7.92 7.44-1.285 1.385-2.538 2.877-3.12 4.08 1.928-1.354 3.633-4.206 5.521-4.8-7.96 7.84-15.58 14.72-21.84 23.52zm-10.56 23.28c0.706-3.027 1.997-6.465 2.16-9.12 0.146-2.381-0.384-4.844-0.48-6.96-0.12-2.64 0.156-5.062 0.24-7.439 0.162-4.595-0.231-9.077 0.96-13.68 0.469-1.813 1.405-3.733 2.16-5.52 0.716-1.694 1.774-3.427 2.4-5.28 0.369-1.092 0.388-2.43 0.72-3.6 0.327-1.154 0.87-2.224 1.2-3.36 2.179-7.507 2.469-15.061 3.84-23.04-1.451 1.017-0.91 2.892-1.2 4.32-0.286 1.41-0.933 2.92-1.2 4.32-1.252 6.553-1.986 12.38-3.84 18.24-0.875 2.766-1.636 5.857-2.88 8.4-0.517 1.055-1.401 1.823-1.92 2.88-0.535 1.09-0.997 2.647-1.44 4.08-0.936 3.023-1.523 5.621-2.16 9.12-0.297 1.629-0.819 3.325-0.96 4.8-0.553 5.788 0.14 13.06 0 18.48-0.02 0.77-0.051 2.09-0.72 2.64 0.187-2.826-0.354-4.926-0.24-7.68-6.044-9.301-12.127-18.647-16.8-28.8-1.246-2.707-2.144-5.518-3.36-8.16-0.389-0.845-1.102-1.533-1.44-2.4-0.731-1.875-1.357-3.848-2.16-5.76-1.626-3.872-2.683-7.743-4.08-11.76-0.667-1.919-1.685-3.816-2.16-5.76-0.57-2.33-0.769-4.778-1.44-7.2-2.874-10.374-5.226-22.526-3.6-34.8 0.265-1.998 0.971-3.955 1.2-6 0.644-5.757 0.632-11.386 1.68-16.56 0.215-1.061 0.845-1.858 0.96-2.88 0.098-0.867-0.316-1.878-0.24-2.88 0.05-0.663 0.571-1.386 0.72-2.16 0.504-2.632 0.865-5.283 0.96-7.68 0.088-2.222-0.17-6.108-0.72-7.68-0.279-0.798-1.102-1.504-1.44-2.4-1.167-3.092-1.22-7.114-2.64-10.32-2.718-1.842-3.338-5.782-5.52-8.16-3.02-0.34-3.627-3.092-6.48-3.6 0.199 1.841 1.124 3.472 1.68 5.28 0.597 1.939 1.111 3.886 1.44 6 0.673 4.326 1.418 8.873 1.68 13.44 0.06 1.044-0.3 2.095-0.24 3.12 0.113 1.933 0.824 3.786 0.96 5.76 0.76 11.03-0.205 21.957 1.2 32.88 0.542 4.209 0.843 8.411 1.44 12.48 0.193 1.318 0.78 2.576 0.96 3.84 0.739 5.204 1.374 10.854 2.4 15.12 0.266 1.107 0.25 2.252 0.48 3.36 1.28 6.158 3.506 12.26 5.04 18 2.195 8.214 5.795 15.11 8.88 22.08 2.963 6.695 6.335 14.085 10.08 20.64 3.88 6.79 8.467 13.351 10.08 20.88 0.781 3.646 0.272 7.601 0.96 10.8-0.071 0.418 0.931 0.842 0.72 0 0.146-0.014 0.284-0.036 0.24-0.24 0.77-3.2 1.18-6.9 1.92-10.08zm-35.04-164.88c0.306 0.821 0.053 1.521 0.24 2.16 0.294 1.003 1.299 1.659 1.68 2.64 0.94 2.419 1.208 7.014 0.96 10.08-0.246 3.044-1.415 6.089-1.44 9.12-0.034 4.126 1.363 8.477 1.44 12.48 1.189-1.09 1.675-3.076 2.16-4.8 0.534-1.897 0.887-3.993 1.2-6 0.091-0.892-0.973-0.627-0.72-1.68 0.667-4.662 1.453-11.939-1.2-15.12-0.737-3.583-2.168-6.471-3.6-9.36-0.307-0.013-0.333-0.308-0.72-0.24v0.72zm110.88 5.52c1.338-0.473 1.786-2.728 2.88-3.84 0.568-0.578 2.205-1.157 1.2-1.68-1.5 1.7-3.71 2.69-4.08 5.52zm7.68 0.48c0.197-0.764 0.153-1.767 0.48-2.4 0.477 0.003 0.306 0.655 0.96 0.48 0.271-0.449 0.284-1.156 1.2-0.96 0.03-1.311-0.149-2.411-1.2-2.64-0.372 0.546-0.5 0.454-1.2 0.24-0.97 1.24-2.27 4.31-0.24 5.28zm-0.24-6c-0.752 0.381-2.527 1.712-1.2 2.64 0.84-0.44 1.07-1.49 1.2-2.64zm7.44 5.04c-0.078-2.642-1.747-3.692-3.359-4.8-0.09 1.88 2.06 3.52 3.36 4.8zm-13.92 0.48c-0.295 0.771-0.818 2.466 0.24 3.12 1.644-2.437 2.812-5.348 4.32-7.92 0.252-0.013 0.188-0.308-0.24-0.24-1.06 1.11-3.76 3.58-4.32 5.04zm11.52 0c0.313-1.351-0.342-3.385-1.681-3.84 0.42 1.42 0.32 3.36 1.68 3.84zm-12.24 8.4c-0.082-3.198-1.216-5.344-1.2-8.64-1.326 1.147-2.162 3.434-2.4 5.52-0.233 2.048-0.196 6.405 0.48 7.92 1.801 4.032 4.468 6.255 9.6 6.48 4.074 0.179 6.683-1.922 8.16-5.04 0.873-1.841 0.983-3.701 1.44-5.76 0.838 2.075-0.964 4.768-0.72 6.24 1.533-2.425 2.635-7.691 2.159-11.76-0.136-1.164-0.468-2.829-1.439-3.36-0.196 1.561 0.257 5.819 0 7.44-0.451-3.149-1.183-6.017-2.4-8.4-2.897 2.223-3.107 7.132-4.08 11.28-0.455-2.265-1.019-4.422-1.439-6.72-1.214-1.426-2.373-2.907-2.641-5.28-0.307-0.013-0.332-0.308-0.72-0.24-2 3.04-4.04 6.04-4.8 10.32zm9.12-2.64c1.731-1.103 2.983-6.028 0.479-7.2-2.57 1.54-1.69 4.9-0.48 7.2zm-47.28 13.2c-2.665-0.796-3.718 2.022-6 2.4-0.894 1.769-3.003 3.045-4.08 5.04-0.987 1.829-1.363 4.202-2.16 6.24-0.808 2.066-2.446 4.255-1.2 6.48 4.041-7.752 8.889-15.143 16.561-19.2 1.301-0.688 2.922-0.675 3.84-2.16-2.31-0.83-5.31 0-6.96 1.2zm-16.56 3.12c-2.066 2.734-4.548 5.053-5.761 8.64-0.915 0.125-1.441 0.638-1.92 1.2-0.637 3.523-1.518 6.802-1.439 11.04-0.162 0.878-0.965 1.116-1.2 1.92-1.475 8.264 0.343 15.412 0.72 24 0.181 4.097-0.489 8.555 0.24 11.52 1.246-13.746 3.441-25.542 7.2-36.24 2.342-6.666 5.753-12.552 7.92-18.96 1.585-0.591 2.064-2.234 3.12-3.36 1.063-1.135 2.845-1.688 3.359-3.36-4.7-0.35-8.14 2.56-12.24 3.6zm59.28-0.96c-0.123 1.663 0.288 3.177 0.24 4.8-0.092 3.15-0.621 6.632-0.96 9.84-0.184 1.733-0.044 3.361-0.24 5.04-0.181 1.547-0.82 3.097-0.96 4.56-0.556 5.813-1.264 11.5-1.92 17.28-0.635 5.595-1.779 11.147-2.399 16.8-1.207 10.987-3.985 21.762-5.761 32.88-1.672 10.468-4.507 21.175-6.72 31.919-1.144 5.552-3.161 12.178-4.56 17.04-1.272 4.423-2.093 9.584-3.601 13.44-1.837 4.699-3.105 9.488-5.04 14.16-0.97 2.344-1.445 4.771-2.399 7.2-1.894 4.818-3.577 9.576-5.04 14.159-0.782 2.45-1.393 4.917-2.16 7.44-0.718 2.357-1.731 4.741-2.4 7.2-0.704 2.589-1.095 5.298-1.92 7.92-2.944 9.359-5.125 20.223-7.2 31.439-0.978 5.29-1.742 11.02-2.159 17.04-0.438 6.307-1.241 13.022-0.48 18.48 0.274 1.967 1.078 4.044 1.68 6 0.572 1.858 1.248 3.797 2.4 5.28-4.461-20.144 0.477-39.779 3.12-57.841 0.891-6.083 2.761-11.892 4.319-17.52 1.55-5.595 3.359-11.035 5.04-16.56 1.695-5.569 3.175-11.148 5.04-16.561 2.818-8.174 5.88-16.087 8.16-24.24 1.201-4.292 2.712-8.118 3.84-12.479 1.861-7.193 4.244-13.833 6-21.12 1.098-4.552 2.224-9.209 3.12-13.2 2.393-10.644 4.299-20.872 6.24-31.44 4.442-24.185 7.817-49.643 9.6-77.28 0.038-0.462 0.946-2.002 0-1.92-0.521-0.36-1.351-0.409-2.159-0.48-0.34 0.14-0.59 0.37-0.72 0.72zm-115.2 5.28c-0.999 3.335-0.273 6.781 0 10.56 0.516 7.133 1.089 14.556 2.16 21.6 0.707 4.647 1.604 9.121 2.4 13.68 0.774 4.43 2.098 8.68 3.12 12.96 1.048 4.388 1.905 8.756 3.12 12.96 1.2 4.153 2.578 8.207 3.84 12.24 1.308 4.182 2.131 8.523 3.6 12.48 2.291 6.171 4.038 13.718 7.68 18.24 0.379 0.47 1.144 1.942 1.44 0.96-2.732-9.438-6.004-18.629-8.88-28.081-0.708-2.326-1.354-4.641-2.16-6.96-0.822-2.365-1.372-4.78-2.16-7.2-1.135-3.484-2.525-6.819-3.36-10.32-0.332-1.393-0.179-2.871-0.48-4.32-0.333-1.602-1.042-3.16-1.44-4.8-2.154-8.884-3.773-17.34-5.04-27.12-0.481-3.718-1.306-7.451-1.68-11.28-0.513-5.251-0.692-10.572-1.44-16.08-0.014-0.146-0.036-0.284-0.24-0.24-0.3 0.1-0.49 0.31-0.48 0.72zm48.48 45.36c1.335-0.425 0.755-2.765 1.68-3.6 2.945-9.936 5.721-20.04 7.44-31.2-0.014-0.146-0.036-0.284-0.24-0.24-4.41 10.23-7.94 21.34-8.88 35.04zm-8.16-19.2c-0.827 2.216-1.281 5-2.16 7.44-0.929 2.581-2.419 5.025-2.64 7.2-0.099 0.969 0.203 2.043 0.24 3.12 0.032 0.922-0.714 2.025 0.24 2.64 1.715-6.361 3.479-11.801 5.76-17.52 0.776-1.947 2.117-3.603 2.399-5.52 0.322-2.183-0.067-4.173 0.24-6.48 0.301-0.819 1.19-1.05 1.44-1.92-0.467-1.425 0.948-3.263-0.24-3.84-1.75 4.44-3.28 9.53-5.28 14.88zm-42.72 6.96c0.444-6.964 3.5-13.749 1.2-20.64-0.9 5.22-2.83 14.4-1.2 20.64zm25.44-13.68c1.419 7.401 2.532 14.859 3.84 22.08 0.457 2.521 1.143 4.971 1.44 7.44 0.494 4.094 0.236 8.921 1.44 12.72 0.329 1.038 0.954 1.799 1.2 2.88 0.834 3.664 0.326 7.521 0.48 11.28 0.128 3.122 0.966 6.14 0.96 9.36-0.01 5.7-0.244 11.443 0.24 17.28 1.267-1.262 0.932-3.282 1.44-5.04 0.585-2.025 1.439-3.796 1.44-6.48 0.004-9.531-1.024-21.048-0.96-31.2-0.241-0.771-0.951-0.068-1.44-0.24-1.743-0.611-1.598-2.882-1.92-5.04-0.916-6.128-2.135-12.189-3.36-17.52-1.408-6.128-2.611-13.094-4.32-18-0.307-0.013-0.333-0.308-0.72-0.24 0.04 0.28-0.04 0.68 0.24 0.72zm-23.28 7.68c-0.727 4.814-0.917 10.101-0.72 15.36 0.409 10.928 3.336 19.956 6.24 28.32 4.025 11.597 8.915 22.409 13.92 31.92-0.145-3.059-1.695-5.758-2.64-8.64-1.001-3.052-1.735-6.243-2.64-9.36-0.888-3.062-2.021-6.052-2.88-9.12-4.453-15.92-8.342-31.768-10.8-49.2-0.34 0.06-0.27 0.53-0.48 0.72zm41.28 6.72c-0.708 1.937-1.756 3.968-2.4 6-4.528 14.289-2.625 33.724-2.16 51.12 1.444-0.722 1.869-2.606 2.4-4.08 3.046-8.447 5.159-17.1 6-27.6 0.339-4.23 0.745-8.592 0.72-12.72-0.04-6.531-1.533-13.023-1.44-19.44-0.307-0.013-0.332-0.308-0.72-0.24-0.93 2.3-1.52 4.56-2.4 6.96zm6.96 19.92c0.368-1.156 1.361-2.952 0.72-4.32 0.05 1.57-1.05 3.26-0.72 4.32zm41.04 20.4c-4.438 2.156-8.747 6.377-13.199 9.84-4.489 3.492-8.457 7.092-12.24 10.8-7.024 6.885-16.028 16.061-20.4 25.68-2.458 5.408-3.556 11.949-4.32 18.96-1.079 9.906-0.433 19.717 0.96 29.04 0.915-2.988 0.792-6.051 1.92-8.641 0.377-0.865 1.067-1.607 1.439-2.399 1.603-3.413 2.669-6.862 4.801-9.84 1.732 0.11 3.106-1.737 5.039-2.4 1.679-0.575 5.363-1.41 6.48-1.2 2.192 0.413 2.957 2.39 4.56 4.08 2.873 0.263 3.354 2.887 3.841 5.04 0.316 1.399 0.039 3.051 0.479 4.561 0.376 1.288 1.291 1.566 1.68 2.88 0.445 1.5 0.901 3.682 0.96 5.52 0.071 2.193-0.874 4.426-0.96 6.96-0.034 1.014 0.327 2.03 0.24 3.12-0.273 3.42-2.306 6.762-3.12 10.561-0.222 1.036 0.004 2.086-0.239 3.119-0.379 1.606-1.46 3.381-2.16 5.04-2.185 5.176-4.644 10.284-6.24 15.601-1.169 3.893-1.859 8.011-2.4 12.24-1.265 9.897-0.694 20.096 0.24 29.76 0.385 3.978 0.402 8.202 1.92 12.479 0.486-7.12 0.365-13.044 1.2-19.92 0.222-1.824 0.893-3.671 1.2-5.52 3.613-21.708 9.32-41.014 15.6-59.521 1.739-5.126 3.425-10.462 5.04-15.359 0.574-1.742 1.38-3.331 1.92-5.04 0.312-0.987 0.176-1.94 0.48-2.88 0.237-0.734 0.904-1.358 1.2-2.16 1.277-3.471 2.213-7.104 3.119-10.32 2.562-9.087 5.297-17.751 7.44-26.88 3.414-14.54 6.619-29.37 9.6-45.12-5.25-0.96-12.14 0-16.08 1.92zm-80.88 67.44c-1.668-0.963-2.399-2.711-3.6-4.08-1.223-1.395-2.807-2.431-4.08-3.84-0.705-0.78-1.167-1.777-1.92-2.641-4.499-5.157-8.7-10.789-13.2-15.6-0.807-0.863-1.481-2.059-2.16-2.641-0.684-0.586-1.823-0.878-2.64-1.439-2.417-1.662-4.638-3.637-6.96-5.28-3.26-2.307-6.689-4.682-10.8-5.76-4.384-3.13-11.354-6.098-16.8-8.64-2.009-0.938-4.279-2.146-6.24-2.4-0.744-0.097-1.554 0.278-2.4 0.24-0.906-0.041-2.112-0.554-3.36-0.72-1.22-0.162-2.639-0.081-3.84-0.24-1.673-0.221-3.515-1.208-4.56-0.48-1.845 1.285-4.772 1.105-7.2 2.16-1.233 0.536-2.796 1.678-3.36 2.4-2.501 3.203-1.535 7.774 1.44 9.12 3.031 1.371 6.677 0.166 10.56 0.48 7.616 0.616 15.675 2.97 22.8 5.76 2.538 0.994 5.208 2.377 7.44 3.36 0.814 0.358 1.813 0.599 2.64 0.96 5.086 2.223 9.131 5.536 13.2 8.16 1.461 0.941 3.08 1.69 4.56 2.64 7.337 4.705 14.005 10.314 20.88 15.12 1.251 0.874 3.233 2.206 3.12 3.6-4.85-3.43-9.567-7.121-14.4-10.8-2.393-1.821-4.748-3.805-7.2-5.52-2.535-1.772-5.261-3.163-7.92-4.8-9.085-5.593-18.745-11.049-29.52-14.641-1.372-0.457-3.285-1.396-4.8-0.72 2.695 1.305 5.222 2.778 8.16 3.84 2.822 4.059 7.667 6.094 12 8.64 0.848 2.176 3.033 2.738 4.8 3.841 3.297 2.055 6.417 4.698 10.08 6.239 0.316 0.645 0.645 1.276 0.96 1.92 2.724 1.318 5.106 3.269 7.68 4.561 0.884 0.443 1.945 1.054 2.88 1.439 2.421 0.999 5.232 1.19 7.68 2.16 1.858 0.736 3.63 2.09 5.28 3.12 1.748 1.092 3.512 2.173 4.8 3.601 1.888 0.351 3.02 1.459 5.04 1.68 1.219 1.58 2.68 2.92 4.08 4.32 1.417 1.416 2.529 3.307 4.56 4.079-1.83-5.13-5.48-8.44-7.68-13.2zm-83.28-37.44c3.796 1.036 7.396 2.725 11.04 4.08 4.326 1.608 7.954 3.971 11.76 5.52 1.224 0.498 2.694 1.891 3.6 1.2-1.631-0.458-2.593-1.704-4.08-2.64-1.076-0.677-2.633-0.836-3.6-1.68-0.663-0.578-0.75-1.589-1.44-2.16-0.661-0.548-1.993-0.967-3.12-1.44-1.051-0.441-2.196-0.852-3.36-1.2-3.722-1.113-6.853-2.357-11.28-2.399-0.072 0.47 0.324 0.48 0.48 0.72zm170.88 92.64c3.365-4.234 7.812-7.388 12-10.8 0.285-0.755 0.81-1.27 0.96-2.16 3.016-2.802 5.824-6.184 7.439-9.84 2.216-5.013 5.383-9.392 6.24-15.359 0.21-0.93-1.048-0.393-0.72-1.44 1.21-4.32 1.448-8.142 2.399-12.72-1.333-1.367-1.286-3.746-2.399-5.28-0.358-0.493-1.411-0.991-2.16-1.68-1.24-1.142-1.953-2.312-3.12-2.641-4.819-1.355-8.025 3.283-12 4.801-1.649 3.186-3.562 6.02-5.28 8.88-1.136 1.89-2.172 2.985-3.119 5.04-1.192 2.582-2.062 5.207-2.4 8.159-2.032 2.707-3.249 6.84-3.6 10.801-0.082 0.915 0.223 2.015 0 2.88-0.245 0.946-1.322 1.722-1.681 2.64-0.829 2.125-0.921 4.608-1.439 6.72-0.522 2.127-1.333 3.97-2.16 6-1.596 3.918-2.778 7.999-4.8 11.761-1.946 3.621-3.857 7.206-5.761 10.56-1.98 3.492-4.547 6.701-5.279 10.8 1.488-2.562 3.096-5.284 4.8-7.92 1.696-2.623 3.056-5.682 5.04-7.439-3.224 5.682-6.713 11.424-9.36 17.52-1.33 3.063-3.088 6.09-2.64 9.84 6.69-16.03 16.26-29.19 29.04-39.12zm-39.6 19.68c1.067-7.468 4.341-13.34 6.721-18.96 0.489-1.157 0.69-2.605 1.199-3.84 0.506-1.226 1.441-2.278 1.681-3.36 0.241-1.093 0.01-2.311 0.24-3.36 0.808-3.688 3.153-6.747 3.359-10.319 0.043-0.744-0.459-1.536-0.479-2.4-0.031-1.247 0.53-2.725 0.72-4.08 0.196-1.404 0.505-2.924 0.479-4.32-0.022-1.279-0.072-3.337-0.479-4.56-0.248-0.743-1.387-1.704-1.68-2.64-0.916-2.921-0.118-6.299-2.16-8.881-1.854-0.311-2.52-1.669-3.84-3.119-0.716-0.786-1.155-1.517-2.4-1.92-0.546-0.178-2.729 0.313-3.6 0.479-3.689 0.703-5.027 2.502-7.681 3.6-1.015 1.844-2.081 3.909-3.12 6.24-0.455 1.021-0.697 2.18-1.199 3.36-0.448 1.053-1.309 2.005-1.68 3.12-0.948 2.842-1.143 5.903-1.68 9.12-0.177 1.059-0.634 2.158-0.72 3.119-0.18 2.014 0.489 4.672 0.48 7.2-0.006 1.915-0.008 2.907 0.24 4.561 0.133 0.885 0.075 2.073 0.24 2.64 0.242 0.829 1.055 1.365 1.44 2.16 1.315 2.718 1.465 6.021 2.879 8.4v1.92c0.661 1.096 1.443 2.194 1.92 3.6 0.729 2.148 0.524 3.877 0.721 6.24 0.246 2.968 1.018 6.11 1.2 9.12 0.214 3.535 0.021 7.14 0.239 10.319 0.058 0.831-0.428 2.216 0.721 2.641 1.319-20.089 0.081-43.665 2.64-61.2 0.174-1.192-0.227-2.889 0.96-3.601-2.145 11.722-1.574 27.193-2.4 39.841-0.357 5.475-0.177 11.56-0.239 17.52-0.064 6.138-0.935 12.381-0.48 18 0.689 8.517 0.933 18.033 2.64 26.4 0.337 1.65 1.115 3.31 1.44 5.04 0.356 1.892 0.446 3.765 0.96 5.52 0.473 1.616 1.247 3.189 1.68 4.8 0.916 3.407 1.246 5.168 2.641 7.44 2.356 3.842 5.386 6.213 8.88 8.64 1.647 1.145 2.599 1.986 3.84 3.12 0.531 0.485 1.176 1.107 1.68 1.44 2.723 1.795 6.245 3.351 9.36 4.56 0.941-0.898 1.386-2.294 1.2-4.32-3.651-3.021-8.206-4.529-11.76-7.439-3.185-2.607-6.95-5.989-9.12-10.08-0.528-0.995-0.901-2.361-1.44-3.6-1.525-3.506-2.959-7.657-3.84-11.761-1.212-5.643-2.149-11.747-2.88-17.76-0.739-6.084-1.516-12.444-1.92-18.72-0.406-6.313-0.918-12.723 0-18.72 0.315 3.996-0.469 9.439 0.72 12.479 0.53-4.84 1.07-9.38 1.68-13.68zm-47.52-62.64c5.121 6.062 9.879 12.2 14.16 18.96 5.712 9.021 9.849 19.442 12.96 31.2 1.524 5.762 2.75 11.707 4.32 17.76 3.061 11.809 5.241 23.964 8.16 36 1.485 6.125 2.681 12.161 5.04 17.28-0.916-5.994-2.145-11.927-2.88-18-0.601-4.963-0.684-10.138-1.2-14.64-0.182-1.59-0.239-3.29-0.479-4.8-0.69-4.332-2.417-8.571-3.12-12.96-0.362-2.263-0.658-4.429-1.2-6.721-0.547-2.314-0.618-4.757-1.2-6.96-0.312-1.186-0.957-2.356-1.439-3.6-0.479-1.232-0.777-2.561-1.2-3.84-2.903-8.789-6.691-17.667-10.56-24.96-1.21-2.283-2.303-4.563-3.36-6.721-1.694-3.457-3.758-6.264-6-9.119-1.521-1.938-2.937-4.146-4.56-5.761-0.884-0.879-2.098-1.518-3.12-2.399-0.976-0.843-1.693-2.06-2.64-2.88-0.938-0.813-2.328-1.366-3.36-2.16-1.08-0.831-2.117-1.563-3.12-2.4h-0.72c1.53 2.61 3.64 4.49 5.52 6.72zm39.36 75.12c0.647-5.931-0.228-11.12-0.721-16.8-0.265-3.055-0.22-6.272-1.2-8.64-0.427-1.031-1.336-1.849-1.68-2.88-0.235-0.707-0.025-1.448-0.24-2.16-0.527-1.756-1.603-4.374-2.16-5.76 0.85 13.23 3.39 24.77 6 36.24zm51.36 26.88c-3.4 0.091-6.958 3.083-8.88 4.561-2.781 2.138-4.396 4.053-6.72 6.72-4.854 5.57-8.969 13.68-8.641 22.8 0.06 1.655 0.578 3.61 0.96 5.28 0.326 1.425 0.632 3.78 1.44 4.8 0.668 0.844 2.091 1.081 3.12 1.681 1.065 0.62 1.935 1.871 3.36 1.68-1.626-7.063-5.564-13.124-3.841-20.88 0.867-3.899 4.411-7.737 7.2-10.08 1.974-1.658 3.924-2.384 6.48-3.601 4.508-2.146 10.903-4.172 16.319-4.56 4.353-0.312 7.779-0.422 11.521-0.72 2.292-0.183 4.68 0.057 6.72-0.48 0.976-0.257 2.205-1.25 3.36-1.439 3.452 0.324 9.776 1.335 13.2 0 0.973-0.38 1.306-1.322 2.159-1.44 2.408-0.225 5.296-0.377 7.92-0.72 2.53-0.331 4.667-1.447 7.2-2.4 5.374-2.021 11.146-0.888 14.4-4.319 0.471-4.973 6.126-6.937 5.52-12.48-0.127-1.165-1.012-1.451-0.96-3.12-0.846-1.933-3.693-3.688-5.04-5.28-0.647-0.766-0.731-1.607-1.439-2.159-1.493-1.165-3.307-1.097-5.521-1.44-1.067-0.166-2.197-0.526-3.359-0.72-2.752-0.459-5.795-1.477-8.641-1.681-3.897-0.278-7.49 0.496-11.52 0.48-1.476-0.006-2.896-0.354-4.32-0.24-6.159 0.495-11.125 3.959-16.32 4.08-5.219 3.261-10.303 6.656-16.319 9.12-6.393 5.546-12.461 12.941-18.48 18.96-2.127 2.127-4.76 3.859-6.72 6-0.709 0.774-1.382 2.269-2.4 3.6-2.408 3.147-5.313 7.676-6.72 11.28-1.13 2.897-1.579 11.104-0.96 15.84 0.202 1.548 0.479 3.108 2.4 3.12-0.777-4.803-1.533-9.279-0.96-14.399 0.898-8.037 6.532-15.25 11.04-20.16 1.8-1.961 3.63-3.574 5.76-4.8 6.672-3.841 14.01-7.292 21.6-9.841 1.412-0.474 2.871-0.505 4.32-0.96 1.214-0.381 2.367-1.259 3.6-1.68 2.71-0.924 5.116-0.921 7.44-0.96 1.494-0.025 3.23-0.565 4.8-0.72 1.785-0.177 3.646-0.036 5.28-0.24 5.338-0.668 10.354-2.304 15.359-2.64-4.861 0.989-9.875 2.439-15.359 3.119-3.036 0.377-6.324 0.015-9.36 0.96 1.689 1.911 5.593 1.607 7.68 3.12-2.575-0.602-4.966-1.343-7.199-2.159-0.727-0.266-1.76-0.889-2.4-0.961-1.849-0.206-4.8 0.951-7.2 1.681-3.719 1.129-7.406 2.336-10.319 3.359-3.53 1.241-7.6 2.161-9.601 4.561 5.221 1.099 9.35 3.29 14.4 4.56-6.19-0.2-9.25-4.24-15.36-4.08zm-122.64 44.64c9.323 1.247 19.533 0.391 29.04-0.24-0.312-0.529-1.39-0.845-1.92-0.96-0.899-0.196-1.774-0.304-2.64-0.48-3.567-0.728-6.874-1.591-9.84-2.399-5.014-1.367-10.212-2.004-15.84-2.641-3.763-0.425-7.473-1.043-11.04-1.199-3.424-0.151-7.144 0.473-9.6 0.479-0.847 0.003-1.594-0.3-2.4-0.24-1.921 0.144-3.183 0.887-4.8 1.2-1.438 0.279-2.924 0.14-3.84 0.48-0.984 0.365-1.367 1.231-2.4 1.68-7.833 0.166-13.909 2.091-19.68 4.32-0.821-0.021-0.139 1.461-0.96 1.439-4.325 0.956-7.268 3.293-10.8 5.04-1.503 2.748-4.427 5.562-6.24 8.4-1.374 2.15-3.574 5.55-3.84 7.92-0.252 2.244-0.054 5.395 0.24 7.44 0.76 5.29 4.647 6.24 8.88 7.92 1.716 0.681 3.431 1.562 5.28 1.68 0.756 0.284 0.68 1.4 1.68 1.439 7.672 1.386 15.9 0.697 23.04-0.72 1.083-0.043 0.593 1.487 1.92 1.2 6.182-1.978 13.669-2.651 18.24-6.24 1.123-0.242 0.797 0.963 1.92 0.721 2.675-4.046 7.123-6.317 10.08-10.08 4.159-1.691 6.667-5.858 10.56-8.4 2.161-1.411 4.995-2.237 7.92-3.36 2.712-1.041 5.356-2.429 7.92-3.359 2.117-0.769 4.888-1.978 6.96-2.4 2.239-0.457 4.377 0.167 6.48-0.72 0.669 0.21 1.186 0.574 1.92 0.72 12.216 0.801 25.026 2.976 38.16 2.16 3.665-0.228 7.197-1.216 10.801-1.44 5.536-0.344 12.76 0.117 17.52 0.24-0.135-1.265-1.601-0.982-2.4-1.2-4.095-1.112-7.543-1.808-11.76-2.64-1.491-0.295-3.057-0.999-4.56-1.2-10.632-1.423-21.936-4.12-34.08-2.64 0.18-0.78 1.866-0.054 1.68-1.2-7.826-0.209-15.991-0.942-23.76-0.24-2.599 0.235-5.861 0.827-8.88 0.96-1.424 0.062-2.683-0.125-3.84 0-4.719 0.513-6.237 3.559-8.64 6 1.19-2.169 3.103-3.617 4.56-5.52-6.263-0.438-10.609 1.648-16.32 2.399-6.052 0.797-11.021 1.93-15.6 3.601-1.997 0.729-4.289 1.209-5.52 1.92-4.481 2.587-4.85 8.925-8.4 11.76 2.056-3.304 3.894-6.826 5.76-10.32-4.983 1.341-9.381 3.915-13.92 6-4.591 2.11-9.057 4.503-13.92 5.761 6.389-2.948 13.129-6.189 19.2-9.12 2.155-1.041 4.666-1.525 6.24-3.36-2.988-0.372-6.597-0.123-8.88-1.2 4.2 0.276 8.038 1.48 12.24 0.48 2.357-0.561 4.829-2.037 7.2-2.88 6.363-2.264 13.771-3.716 20.88-4.8 1.314-0.201 3.001 0.001 4.08-1.2-2.801-0.77-6.463-1.088-9.6-1.681-2.297-0.434-4.474-1.134-6.72-1.439-0.789-0.107-2.049 0.498-2.64-0.48 5.073 0.01 9.595 1.93 14.88 2.64zm108.24 9.84c4.987 0.212 8.661 1.738 13.68 1.92-2.104-2.111-5.04-3.315-7.44-5.04-2.455-1.765-4.556-4.019-6.239-6.479h-0.721c1.06 2.61 1.69 6.3 0.72 9.6zm-82.32 0.72c-4.283 1.431-7.953 3.351-11.76 4.8-2.788 1.062-5.343 1.651-7.68 3.12-2.413 1.518-4.61 2.973-6 5.04 5.91-2.709 12.401-5.159 18.48-7.68 2.12-0.879 4.492-1.655 6.72-2.16 3.439-0.779 6.937-1.649 10.32-2.4 0.964-0.213 2.438-0.247 3.12-1.199-4.3-1.24-9.62-0.71-13.2 0.48z"/>
	<path d="m124.32 117.12c-0.571-0.549-0.695-1.544-0.72-2.64-0.355-0.525-0.468-1.292-0.96-1.68-0.085-1.115-0.308-2.092-0.72-2.88-0.067-0.429 0.227-0.492 0.24-0.24 0.73 2.47 1.86 4.54 2.16 7.44z"/>
	<path d="m183.84 121.44c-1.087 2.034-4.269 4.05-5.76 6.48 0.52-2.6 3.91-4.41 5.76-6.48z"/>
	<path d="m126.72 127.44c1.11 0.481 0.739 2.218 0.96 3.36 0.236 1.223 0.676 2.435 0.96 3.36v1.44c0.683 2.197 1.334 4.425 1.44 7.2-1.23-5.01-2.37-10.11-3.36-15.36z"/>
	<path d="m135.12 172.08c0.769 0.831 0.152 3.047 0.72 4.08-0.72 0.07-0.66-2.7-0.72-4.08z"/>
	<path d="m248.88 209.28c1.531 0.072 4.134 1.145 5.04 2.64 1.882 0.839 3.576 1.864 4.8 3.36-3.24-2.04-6.12-4.44-9.84-6z"/>
	<path d="m208.08 221.28c-0.138 1.251-3.384 2.072-5.521 3.12-1.799 0.883-3.331 2.229-5.04 2.64 2.93-2.51 7.29-3.59 10.56-5.76z"/>
	<path d="m197.28 227.04c-6.666 4.214-13.467 8.293-19.2 13.44 0.653-1.459 2.238-2.273 3.6-3.36 1.287-1.027 2.462-2.442 3.84-3.36 0.654-0.435 1.542-0.542 2.16-0.96 2.62-1.77 6.1-4.55 9.6-5.76z"/>
	<path d="m221.76 301.92c0.116 2.012-0.804 4.127-1.439 6-1.903 5.608-4.547 11.282-7.2 16.32 0.031-1.598 1.231-2.833 1.92-4.32 2.51-5.41 4.73-11.83 6.72-18z"/>
	<path d="m166.32 308.16c-0.104 2.378-0.852 6.188-1.44 8.88 0.14-3.3 0.83-6.05 1.44-8.88z"/>
	<path d="m209.52 331.2c0.021-1.503 1.767-3.352 2.4-5.04 0.4 0.85-1.86 3.52-2.4 5.04z"/>
	<path d="m208.56 331.92c-0.11 2.002-1.615 3.588-2.64 5.28-1.033 1.707-1.95 3.602-3.12 5.28-1.128 1.618-2.535 3.127-3.6 4.8-1.104 1.731-1.842 3.674-3.36 5.04 3.7-7.34 9.27-12.8 12.72-20.4z"/>
	<path d="m194.64 353.76c-0.683 2.918-3.81 5.47-5.04 8.641-0.408-0.089-0.452 0.187-0.479 0.479 0.233-2.108 2.348-3.749 3.6-5.76 0.27-0.433 0.217-1.035 0.48-1.44 0.155-0.238 0.789-0.448 0.96-0.72 0.29-0.47 0.01-0.95 0.48-1.2z"/>
	<path d="m280.8 394.8c-4.696 0.324-10.822 1.134-15.6 2.16 2.496-1.426 7.648-1.55 12.24-2.16 1.11-0.15 2.6-1.17 3.36 0z"/>
	<path d="m246.72 404.88c1.127-0.4 2.876 0.64 4.561 0.48 1.58 0.89-3.48-0.12-4.56-0.48z"/>
	<path d="m127.2 461.04c-1.557 1.644-4.729 1.671-6.72 2.88 1.04-1.2 4.35-2.21 6.72-2.88z"/>
	<path d="m31.68 466.32c-1.166 0.434-5.03 0.956-6.96 1.68 0.407-0.473 1.116-0.644 1.92-0.72 1.26-0.74 3.135-0.86 5.04-0.96z"/>
	<path d="m50.64 478.8c0.474 1.042-1.229 1.967-1.2 3.36-0.679-0.03-0.854 1.184-1.44 1.68-0.461 0.391-1.638 1.141-1.68 0.48 2.168-1.11 3.102-3.46 4.32-5.52z"/>
</g>
<metadata><rdf:RDF><cc:Work><dc:format>image/svg+xml</dc:format><dc:type rdf:resource="http://purl.org/dc/dcmitype/StillImage"/><cc:license rdf:resource="http://creativecommons.org/licenses/publicdomain/"/><dc:publisher><cc:Agent rdf:about="http://openclipart.org/"><dc:title>Openclipart</dc:title></cc:Agent></dc:publisher><dc:title>field daisy</dc:title><dc:date>2007-10-13T15:17:25</dc:date><dc:description>Nature Drawing and Design (1904) by Frank Steeley</dc:description><dc:source>http://openclipart.org/detail/6844/field-daisy-by-johnny_automatic-6844</dc:source><dc:creator><cc:Agent><dc:title>johnny_automatic</dc:title></cc:Agent></dc:creator><dc:subject><rdf:Bag><rdf:li>clip art</rdf:li><rdf:li>clipart</rdf:li><rdf:li>colouring book</rdf:li><rdf:li>daisy</rdf:li><rdf:li>externalsource</rdf:li><rdf:li>flower</rdf:li><rdf:li>image</rdf:li><rdf:li>media</rdf:li><rdf:li>plant</rdf:li><rdf:li>png</rdf:li><rdf:li>public domain</rdf:li><rdf:li>svg</rdf:li></rdf:Bag></dc:subject></cc:Work><cc:License rdf:about="http://creativecommons.org/licenses/publicdomain/"><cc:permits rdf:resource="http://creativecommons.org/ns#Reproduction"/><cc:permits rdf:resource="http://creativecommons.org/ns#Distribution"/><cc:permits rdf:resource="http://creativecommons.org/ns#DerivativeWorks"/></cc:License></rdf:RDF></metadata></svg>
